<svg width="129" height="39" viewBox="0 0 129 39" fill="none" xmlns="http://www.w3.org/2000/svg">
<path d="M49.3907 23.3016C49.0226 23.5837 48.8418 23.53 48.849 24.088C49.0133 26.9347 47.8812 28.3637 45.4526 28.3755H31.7437C29.5939 28.3755 27.2151 28.442 26.1543 27.7088L26.143 28.3755C25.2902 34.1753 21.2612 37.6348 16.3311 37.6348H8.77937C3.79538 37.6343 0 32.6511 0 27.0422V18.0716C0 14.5768 3.39592 14.6848 4.44385 14.5409C5.49179 14.3966 5.70847 14.0366 5.70847 14.0366V27.7273C5.88714 31.7264 8.16119 32.2671 12.4181 32.2671H15.7889C20.9541 32.2671 20.5942 27.4001 20.5942 27.4001V18.0721C20.5942 14.5773 23.9907 14.6853 25.0386 14.5414C26.0865 14.3971 26.3032 14.0371 26.3032 14.0371V21.3509C26.3032 21.8716 26.6647 23.3021 28.6697 23.3021H49.3907V23.3016Z" fill="white"/>
<path d="M66.8967 16.3423H70.3106C70.3106 16.3423 70.1211 14.3788 68.1069 14.1085C65.4421 13.8924 66.1019 16.3423 66.8967 16.3423ZM61.0974 28.3163C60.0828 28.242 58.9917 28.0219 58.0265 27.6548C57.4124 33.8878 53.2571 37.6345 48.1267 37.6345H39.9609C41.0089 37.6345 40.7558 36.5537 40.7558 35.797C40.7558 32.4107 42.9959 32.2663 42.9959 32.2663H47.5846C52.6789 32.2304 52.3899 27.3993 52.3899 27.3993V18.0713C52.3899 14.5765 55.7863 14.6845 56.8342 14.5406C57.8822 14.3962 58.0989 14.0363 58.0989 14.0363V21.3501C58.0989 22.5569 59.5011 22.7955 61.0979 22.8758H69.5784C70.5719 22.8758 70.8892 21.602 70.5642 21.602H65.9032C60.6101 21.5477 58.5327 11.4421 64.9636 9.1724C66.4023 8.68498 67.3177 8.56518 68.9382 8.66809C73.0929 8.66809 75.8429 11.8143 76.3086 16.1258V22.7187C76.3276 24.8501 73.5627 28.303 69.7689 28.303H61.0974V28.3158V28.3163Z" fill="white"/>
<path fill-rule="evenodd" clip-rule="evenodd" d="M98.176 32.214C97.3534 34.1339 95.5964 33.0618 95.5964 33.0618C93.8415 31.9851 93.1884 30.2356 93.6377 27.8129L96.151 28.8256C96.151 28.8256 99.1233 30.0022 98.176 32.214ZM93.5006 20.0035C93.5006 20.0035 93.4811 16.8143 95.8927 16.8619C97.986 16.9029 97.6471 18.9293 97.6471 18.9293C97.3036 20.9553 95.9215 22.2143 93.5006 22.7063V20.0035ZM128.301 22.8271H101.816C101.816 22.8271 106.911 11.6222 95.4932 11.6222C85.3045 11.6222 88.1228 22.8988 88.1228 22.8988C86.3026 22.8384 84.5461 22.7007 84.5461 21.3495V14.0357C84.5461 14.0357 84.3294 14.3962 83.2815 14.54C82.2336 14.6839 78.8376 14.5759 78.8376 18.0707V27.3987C78.8376 27.3987 79.1267 32.2293 74.0318 32.2657H69.4432C69.4432 32.2657 67.203 32.4096 67.203 35.7964C67.203 36.5531 67.4556 37.6339 66.4082 37.6339H74.5735C79.7043 37.6339 83.8591 33.8867 84.4732 27.6542C85.783 28.1518 87.3249 28.3802 88.592 28.3387C88.5443 34.8047 90.9652 38.0471 96.3604 38.066C105.104 38.066 104.526 31.7972 102.178 28.3746H124.362C126.791 28.3628 127.923 26.9338 127.759 24.0871C127.752 23.5286 127.933 23.1082 128.301 22.8261V22.8271Z" fill="white"/>
<path d="M121.65 16.8511C121.65 15.9091 122.416 15.1452 123.361 15.1452H125.784C126.397 15.115 126.927 14.9143 127.371 14.5431V20.7607H121.65V16.8511Z" fill="white"/>
<path d="M114.727 16.8511C114.727 15.9091 115.493 15.1452 116.437 15.1452H118.859C119.473 15.115 120.002 14.9143 120.447 14.5431V20.7607H114.727V16.8511Z" fill="white"/>
<path d="M107.762 16.8511C107.762 15.9091 108.528 15.1452 109.473 15.1452H111.895C112.509 15.115 113.038 14.9143 113.483 14.5431V20.7607H107.762V16.8511Z" fill="white"/>
<path d="M43.3242 16.8511C43.3242 15.9091 44.0903 15.1452 45.0355 15.1452H47.4574C48.071 15.115 48.6004 14.9143 49.045 14.5431V20.7607H43.3242V16.8511Z" fill="white"/>
<path d="M36.4004 16.8511C36.4004 15.9091 37.1664 15.1452 38.1112 15.1452H40.5336C41.1472 15.115 41.6765 14.9143 42.1212 14.5431V20.7607H36.4004V16.8511Z" fill="white"/>
<path d="M29.4355 16.8511C29.4355 15.9091 30.2016 15.1452 31.1463 15.1452H33.5688C34.1823 15.115 34.7117 14.9143 35.1563 14.5431V20.7607H29.4355V16.8511Z" fill="white"/>
<path d="M65.291 2.30806C65.291 1.36599 66.0571 0.602102 67.0018 0.602102H69.4242C70.0378 0.571382 70.5672 0.370682 71.0118 0V6.21762H65.291V2.30806Z" fill="white"/>
</svg>
